# xmcd
#
# Track frame offsets: 
#        150
#        14625
#        34230
#        53277
#        68530
#        86367
#        110677
#        125930
#        142995
#        172965
#
# Disc length: 2757 seconds
#
# Revision: 4
# Processed by: cddbd v1.5.2PL0 Copyright (c) Steve Scherf et al.
# Submitted via: ExactAudioCopy v0.99pb5
#
DISCID=800ac30a
DTITLE=Allison Moorer - The Hardest Part
DYEAR=2000
DGENRE=Country
TTITLE0=The Hardest Part
TTITLE1=Day You Said Goodbye
TTITLE2=It's Time I Tried
TTITLE3=Best That I Can Do
TTITLE4=Think It Over
TTITLE5=Bring Me All Your Lovin'
TTITLE6=Is It Worth It
TTITLE7=Send Down An Angel
TTITLE8=No Next Time
TTITLE9=Feeling That Feeling Again
EXTD=YEAR: 2000 ID3G:   2
EXTT0=
EXTT1=
EXTT2=
EXTT3=
EXTT4=
EXTT5=
EXTT6=
EXTT7=
EXTT8=
EXTT9=
PLAYORDER=
